# xmcd
#
# Track frame offsets:
#	150
#	11010
#	27268
#	39084
#	62626
#	82616
#	102319
#	120415
#	133651
#	151464
#	171119
#	189898
#	210476
#
# Disc length: 2997 seconds
#
# Revision: 0
# Processed by: cddbd v1.5.2PL0 Copyright (c) Steve Scherf et al.
# Submitted via: EasyCDDAExtractor 2010.4.0.0
#
DISCID=940bb30d
DTITLE=Anni B Sweet  - Start, Restart, Undo
DYEAR=2009
DGENRE=
TTITLE0=A Sarcastic Hello\n
TTITLE1=Motorway\n
TTITLE2=Oh I Oh Oh I\n
TTITLE3=Let’s have a picnic\n
TTITLE4=Song of pain\n
TTITLE5=Lalala\n
TTITLE6=Capturing images\n
TTITLE7=To roll like a ball\n
TTITLE8=Second Hand\n
TTITLE9=Tumbado en mi moqueta azul\n
TTITLE10=Again\n
TTITLE11=Mr. D\n
TTITLE12=Take on Me\n
EXTD=
EXTT0=
EXTT1=
EXTT2=
EXTT3=
EXTT4=
EXTT5=
EXTT6=
EXTT7=
EXTT8=
EXTT9=
EXTT10=
EXTT11=
EXTT12=
PLAYORDER=
